<svg width="20" height="20" viewBox="0 0 20 20" fill="none" xmlns="http://www.w3.org/2000/svg">
<path d="M11.1783 10L13.5358 12.3567C13.6922 12.513 13.78 12.7251 13.78 12.9462C13.78 13.1674 13.6922 13.3795 13.5358 13.5358C13.3794 13.6922 13.1673 13.78 12.9462 13.78C12.7251 13.78 12.513 13.6922 12.3566 13.5358L9.99996 11.1783L7.64329 13.5358C7.48693 13.6922 7.27485 13.78 7.05371 13.78C6.83257 13.78 6.62049 13.6922 6.46413 13.5358C6.30776 13.3795 6.21991 13.1674 6.21991 12.9462C6.21991 12.7251 6.30776 12.513 6.46413 12.3567L8.82163 10L6.46413 7.64333C6.30776 7.48697 6.21991 7.27489 6.21991 7.05375C6.21991 6.83261 6.30776 6.62053 6.46413 6.46417C6.62049 6.3078 6.83257 6.21995 7.05371 6.21995C7.27485 6.21995 7.48693 6.3078 7.64329 6.46417L9.99996 8.82167L12.3566 6.46417C12.513 6.3078 12.7251 6.21995 12.9462 6.21995C13.1673 6.21995 13.3794 6.3078 13.5358 6.46417C13.6922 6.62053 13.78 6.83261 13.78 7.05375C13.78 7.27489 13.6922 7.48697 13.5358 7.64333L11.1783 10ZM9.99996 18.3333C5.39746 18.3333 1.66663 14.6025 1.66663 10C1.66663 5.3975 5.39746 1.66667 9.99996 1.66667C14.6025 1.66667 18.3333 5.3975 18.3333 10C18.3333 14.6025 14.6025 18.3333 9.99996 18.3333ZM9.99996 16.6667C11.7681 16.6667 13.4638 15.9643 14.714 14.714C15.9642 13.4638 16.6666 11.7681 16.6666 10C16.6666 8.23189 15.9642 6.5362 14.714 5.28596C13.4638 4.03571 11.7681 3.33333 9.99996 3.33333C8.23185 3.33333 6.53616 4.03571 5.28591 5.28596C4.03567 6.5362 3.33329 8.23189 3.33329 10C3.33329 11.7681 4.03567 13.4638 5.28591 14.714C6.53616 15.9643 8.23185 16.6667 9.99996 16.6667Z" fill="white"/>
</svg>
