<svg width="576" height="512" viewBox="0 0 576 512" fill="none" xmlns="http://www.w3.org/2000/svg">
<g clip-path="url(#clip0_412_69)">
<path d="M288 80C222.8 80 169.2 109.6 128.1 147.7C89.6 183.5 63 226 49.4 256C63 286 89.6 328.5 128 364.3C169.2 402.4 222.8 432 288 432C353.2 432 406.8 402.4 447.9 364.3C486.4 328.5 513 286 526.6 256C513 226 486.4 183.5 448 147.7C406.8 109.6 353.2 80 288 80ZM95.4 112.6C142.5 68.8 207.2 32 288 32C368.8 32 433.5 68.8 480.6 112.6C527.4 156.1 558.7 208 573.6 243.7C576.9 251.6 576.9 260.4 573.6 268.3C558.7 304 527.4 356 480.6 399.4C433.5 443.2 368.8 480 288 480C207.2 480 142.5 443.2 95.4 399.4C48.6 356 17.3 304 2.50002 268.3C-0.799976 260.4 -0.799976 251.6 2.50002 243.7C17.3 208 48.6 156 95.4 112.6ZM288 336C332.2 336 368 300.2 368 256C368 211.8 332.2 176 288 176C287.3 176 286.7 176 286 176C287.3 181.1 288 186.5 288 192C288 227.3 259.3 256 224 256C218.5 256 213.1 255.3 208 254C208 254.7 208 255.3 208 256C208 300.2 243.8 336 288 336ZM288 128C321.948 128 354.505 141.486 378.51 165.49C402.514 189.495 416 222.052 416 256C416 289.948 402.514 322.505 378.51 346.51C354.505 370.514 321.948 384 288 384C254.052 384 221.495 370.514 197.49 346.51C173.486 322.505 160 289.948 160 256C160 222.052 173.486 189.495 197.49 165.49C221.495 141.486 254.052 128 288 128Z" fill="#1A1A1A"/>
</g>
<defs>
<clipPath id="clip0_412_69">
<rect width="576" height="512" fill="white"/>
</clipPath>
</defs>
</svg>
