<svg width="22" height="22" viewBox="0 0 22 22" fill="none" xmlns="http://www.w3.org/2000/svg">
<path d="M12.0184 21.45C14.2227 18.6914 19.25 12.0055 19.25 8.25C19.25 3.69531 15.5547 0 11 0C6.44531 0 2.75 3.69531 2.75 8.25C2.75 12.0055 7.77734 18.6914 9.98164 21.45C10.5102 22.1074 11.4898 22.1074 12.0184 21.45ZM11 5.5C11.7293 5.5 12.4288 5.78973 12.9445 6.30546C13.4603 6.82118 13.75 7.52065 13.75 8.25C13.75 8.97935 13.4603 9.67882 12.9445 10.1945C12.4288 10.7103 11.7293 11 11 11C10.2707 11 9.57118 10.7103 9.05546 10.1945C8.53973 9.67882 8.25 8.97935 8.25 8.25C8.25 7.52065 8.53973 6.82118 9.05546 6.30546C9.57118 5.78973 10.2707 5.5 11 5.5Z" fill="white"/>
</svg>
