<svg width="20" height="20" viewBox="0 0 20 20" fill="none" xmlns="http://www.w3.org/2000/svg">
<g clip-path="url(#clip0_22_105)">
<path d="M19.9999 18.824L14.7918 13.6158C17.704 10.0541 17.1775 4.80595 13.6158 1.89373C10.054 -1.0185 4.80589 -0.491977 1.89367 3.06978C-1.01856 6.63154 -0.492034 11.8797 3.06968 14.7919C6.13757 17.3003 10.5479 17.3003 13.6157 14.7919L18.8239 20L19.9999 18.824ZM8.35604 15.0098C4.68132 15.0098 1.70238 12.0308 1.70238 8.35611C1.70238 4.68138 4.68132 1.70244 8.35604 1.70244C12.0308 1.70244 15.0097 4.68138 15.0097 8.35611C15.0056 12.0291 12.029 15.0056 8.35604 15.0098Z" fill="white"/>
</g>
<defs>
<clipPath id="clip0_22_105">
<rect width="20" height="20" fill="white"/>
</clipPath>
</defs>
</svg>
