<svg width="24" height="24" viewBox="0 0 24 24" fill="none" xmlns="http://www.w3.org/2000/svg">
<g clip-path="url(#clip0_394_71)">
<path d="M7.72969 1.15348C7.36875 0.281601 6.41719 -0.182461 5.50781 0.0659762L1.38281 1.19098C0.567188 1.41598 0 2.1566 0 3.00035C0 14.5972 9.40313 24.0003 21 24.0003C21.8438 24.0003 22.5844 23.4332 22.8094 22.6175L23.9344 18.4925C24.1828 17.5832 23.7187 16.6316 22.8469 16.2707L18.3469 14.3957C17.5828 14.0769 16.6969 14.2972 16.1766 14.9394L14.2828 17.2504C10.9828 15.6894 8.31094 13.0175 6.75 9.71754L9.06094 7.82848C9.70313 7.30348 9.92344 6.42223 9.60469 5.65816L7.72969 1.15816V1.15348Z" fill="#A38037"/>
</g>
<defs>
<clipPath id="clip0_394_71">
<rect width="24" height="24" fill="white"/>
</clipPath>
</defs>
</svg>
