<svg width="24" height="24" viewBox="0 0 24 24" fill="none" xmlns="http://www.w3.org/2000/svg">
<g clip-path="url(#clip0_345_88)">
<path fill-rule="evenodd" clip-rule="evenodd" d="M3 0C1.34314 0 0 1.34314 0 3V21C0 22.6569 1.34314 24 3 24H21C22.6569 24 24 22.6569 24 21V3C24 1.34314 22.6569 0 21 0H3ZM7.00198 8.6153C8.28625 7.4248 9.96112 6.49988 11.9984 6.49988C14.0358 6.49988 15.7106 7.4248 16.998 8.6153C18.1979 9.73395 19.0291 11.062 19.454 11.9994C19.0291 12.9368 18.1979 14.2648 16.9949 15.3835C15.7106 16.574 14.0358 17.4989 11.9984 17.4989C9.96112 17.4989 8.28625 16.574 6.99887 15.3835C5.79898 14.2648 4.9678 12.9368 4.54285 11.9994C4.9678 11.062 5.79898 9.73395 7.00198 8.6153ZM11.9984 5C9.47366 5 7.45197 6.1499 5.98022 7.51855C4.51782 8.87463 3.53979 10.4995 3.07733 11.6151C2.97421 11.8619 2.97421 12.1369 3.07733 12.3837C3.53979 13.4993 4.51782 15.1241 5.98022 16.4802C7.45197 17.8489 9.47366 18.9988 11.9984 18.9988C14.5232 18.9988 16.5449 17.8489 18.0167 16.4802C19.479 15.1241 20.4571 13.4993 20.9227 12.3837C21.0258 12.1369 21.0258 11.8619 20.9227 11.6151C20.4571 10.4995 19.479 8.87781 18.0167 7.51855C16.5449 6.1499 14.5232 5 11.9984 5ZM14.4982 11.9994C14.4982 13.3805 13.3796 14.4992 11.9984 14.4992C10.6173 14.4992 9.49866 13.3805 9.49866 11.9994V11.9369C9.65802 11.9775 9.82675 11.9994 9.99863 11.9994C11.1017 11.9994 11.9984 11.1026 11.9984 9.99957C11.9984 9.8277 11.9766 9.659 11.9359 9.49963H11.9984C13.3796 9.49963 14.4982 10.6183 14.4982 11.9994ZM14.8266 9.1712C14.0765 8.42114 13.0592 7.99976 11.9984 7.99976C10.9377 7.99976 9.92035 8.42114 9.17026 9.1712C8.42017 9.92126 7.99878 10.9386 7.99878 11.9994C7.99878 13.0602 8.42017 14.0775 9.17026 14.8276C9.92035 15.5776 10.9377 15.999 11.9984 15.999C13.0592 15.999 14.0765 15.5776 14.8266 14.8276C15.5767 14.0775 15.9981 13.0602 15.9981 11.9994C15.9981 10.9386 15.5767 9.92126 14.8266 9.1712Z" fill="white"/>
</g>
<defs>
<clipPath id="clip0_345_88">
<rect width="24" height="24" fill="white"/>
</clipPath>
</defs>
</svg>
